<svg width="36" height="36" viewBox="0 0 36 36" fill="none" xmlns="http://www.w3.org/2000/svg">
<rect width="36" height="36" rx="18" fill="#FF5EAB"/>
<path d="M18.0002 11.3333C19.8115 11.3333 20.0375 11.3399 20.7482 11.3733C21.4582 11.4066 21.9415 11.5179 22.3668 11.6833C22.8068 11.8526 23.1775 12.0819 23.5482 12.4519C23.8872 12.7852 24.1495 13.1883 24.3168 13.6333C24.4815 14.0579 24.5935 14.5419 24.6268 15.2519C24.6582 15.9626 24.6668 16.1886 24.6668 17.9999C24.6668 19.8113 24.6602 20.0373 24.6268 20.7479C24.5935 21.4579 24.4815 21.9413 24.3168 22.3666C24.1499 22.8118 23.8876 23.215 23.5482 23.5479C23.2148 23.8868 22.8117 24.1491 22.3668 24.3166C21.9422 24.4813 21.4582 24.5933 20.7482 24.6266C20.0375 24.6579 19.8115 24.6666 18.0002 24.6666C16.1888 24.6666 15.9628 24.6599 15.2522 24.6266C14.5422 24.5933 14.0588 24.4813 13.6335 24.3166C13.1884 24.1496 12.7852 23.8872 12.4522 23.5479C12.1131 23.2147 11.8508 22.8116 11.6835 22.3666C11.5182 21.9419 11.4068 21.4579 11.3735 20.7479C11.3422 20.0373 11.3335 19.8113 11.3335 17.9999C11.3335 16.1886 11.3402 15.9626 11.3735 15.2519C11.4068 14.5413 11.5182 14.0586 11.6835 13.6333C11.8503 13.188 12.1127 12.7848 12.4522 12.4519C12.7853 12.1127 13.1884 11.8504 13.6335 11.6833C14.0588 11.5179 14.5415 11.4066 15.2522 11.3733C15.9628 11.3419 16.1888 11.3333 18.0002 11.3333ZM18.0002 14.6666C17.1161 14.6666 16.2683 15.0178 15.6431 15.6429C15.018 16.268 14.6668 17.1159 14.6668 17.9999C14.6668 18.884 15.018 19.7318 15.6431 20.3569C16.2683 20.9821 17.1161 21.3333 18.0002 21.3333C18.8842 21.3333 19.7321 20.9821 20.3572 20.3569C20.9823 19.7318 21.3335 18.884 21.3335 17.9999C21.3335 17.1159 20.9823 16.268 20.3572 15.6429C19.7321 15.0178 18.8842 14.6666 18.0002 14.6666ZM22.3335 14.4999C22.3335 14.2789 22.2457 14.0669 22.0894 13.9107C21.9331 13.7544 21.7212 13.6666 21.5002 13.6666C21.2791 13.6666 21.0672 13.7544 20.9109 13.9107C20.7546 14.0669 20.6668 14.2789 20.6668 14.4999C20.6668 14.7209 20.7546 14.9329 20.9109 15.0892C21.0672 15.2455 21.2791 15.3333 21.5002 15.3333C21.7212 15.3333 21.9331 15.2455 22.0894 15.0892C22.2457 14.9329 22.3335 14.7209 22.3335 14.4999ZM18.0002 15.9999C18.5306 15.9999 19.0393 16.2106 19.4144 16.5857C19.7894 16.9608 20.0002 17.4695 20.0002 17.9999C20.0002 18.5304 19.7894 19.0391 19.4144 19.4141C19.0393 19.7892 18.5306 19.9999 18.0002 19.9999C17.4697 19.9999 16.961 19.7892 16.5859 19.4141C16.2109 19.0391 16.0002 18.5304 16.0002 17.9999C16.0002 17.4695 16.2109 16.9608 16.5859 16.5857C16.961 16.2106 17.4697 15.9999 18.0002 15.9999Z" fill="white"/>
</svg>
