<svg width="36" height="36" viewBox="0 0 36 36" fill="none" xmlns="http://www.w3.org/2000/svg">
<rect width="36" height="36" rx="18" fill="#4CBAF9"/>
<path d="M24.7942 13.7872C24.2853 14.0123 23.7455 14.1602 23.1929 14.2259C23.7754 13.8775 24.2114 13.3292 24.4196 12.6832C23.8729 13.0086 23.2736 13.2366 22.6489 13.3599C22.2293 12.9109 21.6731 12.6132 21.0669 12.5129C20.4606 12.4127 19.8382 12.5155 19.2964 12.8055C18.7546 13.0955 18.3238 13.5563 18.071 14.1164C17.8181 14.6765 17.7574 15.3044 17.8982 15.9026C16.7896 15.847 15.7051 15.5589 14.7151 15.057C13.7251 14.5551 12.8517 13.8506 12.1516 12.9892C11.9038 13.4149 11.7735 13.8987 11.7742 14.3912C11.7742 15.3579 12.2662 16.2119 13.0142 16.7119C12.5716 16.698 12.1387 16.5784 11.7516 16.3632V16.3979C11.7517 17.0417 11.9745 17.6656 12.3821 18.1639C12.7898 18.6622 13.3572 19.0042 13.9882 19.1319C13.5773 19.2432 13.1464 19.2597 12.7282 19.1799C12.9061 19.734 13.2529 20.2187 13.72 20.566C14.187 20.9132 14.751 21.1057 15.3329 21.1166C14.7546 21.5708 14.0924 21.9065 13.3842 22.1047C12.676 22.3028 11.9357 22.3594 11.2056 22.2712C12.48 23.0908 13.9636 23.526 15.4789 23.5246C20.6076 23.5246 23.4122 19.2759 23.4122 15.5912C23.4122 15.4712 23.4089 15.3499 23.4036 15.2312C23.9495 14.8367 24.4206 14.3479 24.7949 13.7879L24.7942 13.7872Z" fill="white"/>
</svg>
