<svg width="20" height="19" viewBox="0 0 20 19" fill="none" xmlns="http://www.w3.org/2000/svg">
<path fill-rule="evenodd" clip-rule="evenodd" d="M14.7155 11.3471H7.0975L5.4605 5.19839H17.7155L14.7155 11.3471ZM19.4165 4.12032C19.0495 3.51159 18.4135 3.14882 17.7155 3.14882H4.9155L4.2985 0.82973C4.1795 0.383948 3.7845 0.0744629 3.3335 0.0744629H1.3335C0.780496 0.0744629 0.333496 0.533567 0.333496 1.09925C0.333496 1.66493 0.780496 2.12403 1.3335 2.12403H2.5695L5.3685 12.6414C5.4875 13.0872 5.8825 13.3967 6.3335 13.3967H15.3335C15.7125 13.3967 16.0585 13.1774 16.2285 12.83L19.5045 6.11455C19.8175 5.47406 19.7835 4.72904 19.4165 4.12032ZM5.8337 15.4462C5.0057 15.4462 4.3337 16.1339 4.3337 16.9834C4.3337 17.833 5.0057 18.5206 5.8337 18.5206C6.6617 18.5206 7.3337 17.833 7.3337 16.9834C7.3337 16.1339 6.6617 15.4462 5.8337 15.4462ZM14.3337 16.9834C14.3337 16.1339 15.0057 15.4462 15.8337 15.4462C16.6617 15.4462 17.3337 16.1339 17.3337 16.9834C17.3337 17.833 16.6617 18.5206 15.8337 18.5206C15.0057 18.5206 14.3337 17.833 14.3337 16.9834Z" fill="#94959B"/>
</svg>
