<svg width="19" height="19" viewBox="0 0 19 19" fill="none" xmlns="http://www.w3.org/2000/svg">
<path fill-rule="evenodd" clip-rule="evenodd" d="M12.6665 16.471V12.3719H16.6665L16.6675 16.471H12.6665ZM16.6665 10.3223H12.6665C11.5635 10.3223 10.6665 11.2415 10.6665 12.3719V16.471C10.6665 17.6014 11.5635 18.5206 12.6665 18.5206H16.6665C17.7695 18.5206 18.6665 17.6014 18.6665 16.471V12.3719C18.6665 11.2415 17.7695 10.3223 16.6665 10.3223ZM2.6665 16.471V12.3719H6.6665L6.6675 16.471H2.6665ZM6.6665 10.3223H2.6665C1.5635 10.3223 0.666504 11.2415 0.666504 12.3719V16.471C0.666504 17.6014 1.5635 18.5206 2.6665 18.5206H6.6665C7.7695 18.5206 8.6665 17.6014 8.6665 16.471V12.3719C8.6665 11.2415 7.7695 10.3223 6.6665 10.3223ZM12.6665 6.22318V2.12403H16.6665L16.6675 6.22318H12.6665ZM16.6665 0.0744629H12.6665C11.5635 0.0744629 10.6665 0.993695 10.6665 2.12403V6.22318C10.6665 7.35351 11.5635 8.27275 12.6665 8.27275H16.6665C17.7695 8.27275 18.6665 7.35351 18.6665 6.22318V2.12403C18.6665 0.993695 17.7695 0.0744629 16.6665 0.0744629ZM2.6665 6.22318V2.12403H6.6665L6.6675 6.22318H2.6665ZM6.6665 0.0744629H2.6665C1.5635 0.0744629 0.666504 0.993695 0.666504 2.12403V6.22318C0.666504 7.35351 1.5635 8.27275 2.6665 8.27275H6.6665C7.7695 8.27275 8.6665 7.35351 8.6665 6.22318V2.12403C8.6665 0.993695 7.7695 0.0744629 6.6665 0.0744629Z" fill="#94959B"/>
</svg>
