<svg width="20" height="21" viewBox="0 0 20 21" fill="none" xmlns="http://www.w3.org/2000/svg">
<path d="M0.999787 11.3222H1.99979V18.4957C1.99979 19.626 2.89679 20.5452 3.99979 20.5452H15.9998C17.1028 20.5452 17.9998 19.626 17.9998 18.4957V11.3222H18.9998C19.1975 11.3221 19.3908 11.262 19.5552 11.1494C19.7197 11.0368 19.8478 10.8767 19.9235 10.6895C19.9991 10.5023 20.0189 10.2963 19.9804 10.0975C19.9418 9.89875 19.8466 9.71617 19.7068 9.57285L10.7068 0.349785C10.614 0.254535 10.5038 0.17897 10.3825 0.127412C10.2612 0.0758543 10.1311 0.0493164 9.99979 0.0493164C9.86845 0.0493164 9.73841 0.0758543 9.61709 0.127412C9.49578 0.17897 9.38558 0.254535 9.29279 0.349785L0.292787 9.57285C0.152977 9.71617 0.057771 9.89875 0.0192035 10.0975C-0.0193641 10.2963 0.000438951 10.5023 0.076109 10.6895C0.151779 10.8767 0.279918 11.0368 0.444328 11.1494C0.608738 11.262 0.802037 11.3221 0.999787 11.3222ZM7.99979 18.4957V13.3717H11.9998V18.4957H7.99979ZM9.99979 2.52335L15.9998 8.67207V13.3717L16.0008 18.4957H13.9998V13.3717C13.9998 12.2414 13.1028 11.3222 11.9998 11.3222H7.99979C6.89679 11.3222 5.99979 12.2414 5.99979 13.3717V18.4957H3.99979V8.67207L9.99979 2.52335Z" fill="#3B76F4"/>
</svg>
