<svg width="15" height="19" viewBox="0 0 15 19" fill="none" xmlns="http://www.w3.org/2000/svg">
<path fill-rule="evenodd" clip-rule="evenodd" d="M9.5 4.1736C9.5 3.04327 8.603 2.12403 7.5 2.12403C6.397 2.12403 5.5 3.04327 5.5 4.1736C5.5 5.30394 6.397 6.22318 7.5 6.22318C8.603 6.22318 9.5 5.30394 9.5 4.1736ZM11.5 4.1736C11.5 6.43428 9.706 8.27275 7.5 8.27275C5.294 8.27275 3.5 6.43428 3.5 4.1736C3.5 1.91293 5.294 0.0744629 7.5 0.0744629C9.706 0.0744629 11.5 1.91293 11.5 4.1736ZM0.5 17.4958C0.5 13.5401 3.641 10.3223 7.5 10.3223C11.359 10.3223 14.5 13.5401 14.5 17.4958C14.5 18.0615 14.053 18.5206 13.5 18.5206C12.947 18.5206 12.5 18.0615 12.5 17.4958C12.5 14.6705 10.257 12.3719 7.5 12.3719C4.743 12.3719 2.5 14.6705 2.5 17.4958C2.5 18.0615 2.053 18.5206 1.5 18.5206C0.947 18.5206 0.5 18.0615 0.5 17.4958Z" fill="#94959B"/>
</svg>
