<svg width="74" height="14" viewBox="0 0 74 14" fill="none" xmlns="http://www.w3.org/2000/svg">
<g clip-path="url(#clip0_192_11371)">
<path fill-rule="evenodd" clip-rule="evenodd" d="M33.8569 8.00155V11.9356C33.8569 12.1174 34.251 12.0403 34.7885 12.0403C35.4782 12.0403 35.9228 11.7356 36.1573 11.2988C36.7121 10.2689 35.7526 7.73946 36.8311 6.84171C37.8579 5.98733 39.7503 6.96226 39.7503 8.48723L39.7493 11.6576C39.7437 12.1251 39.6 12.0403 40.682 12.0403C41.3506 12.0403 41.802 11.7747 42.0753 11.2515C42.3175 10.7863 42.2105 9.90238 42.2105 9.25427C42.2105 8.95019 42.179 7.97846 42.2539 7.72823C42.2936 7.59926 42.3473 7.47304 42.4126 7.35328C43.1468 6.13794 45.2006 6.2525 45.5963 7.79985C45.6802 8.12851 45.6508 10.9913 45.6409 11.6929C45.6347 12.1241 45.4958 12.0403 46.6492 12.0403C47.4591 12.0403 48.104 11.4325 48.104 10.7522V8.24477C48.104 6.97321 47.4901 5.66505 46.359 4.96404C45.0655 4.16459 43.6942 4.00422 42.2315 4.5738C41.4986 4.85992 41.3481 5.12457 40.9796 5.35368L40.421 4.9367C39.0364 4.02822 36.9945 4.00472 35.689 4.9066C35.5874 4.97172 35.4874 5.0435 35.3935 5.11854C35.2814 5.20974 35.2261 5.24094 35.1151 5.34596C34.3934 6.02342 33.8569 6.96316 33.8569 8.00155V8.00155Z" fill="#009565"/>
<path fill-rule="evenodd" clip-rule="evenodd" d="M61.3074 9.83223H61.0841C60.3148 9.83223 59.5558 9.12065 59.5558 8.40475C59.5558 7.03325 60.3813 7.17381 60.9204 6.51025C61.2999 6.0419 61.1958 5.30976 61.1958 4.64377C61.1958 4.31709 59.7319 4.77018 59.4049 4.92161C58.855 5.17901 58.2238 5.68082 57.8839 6.14775C56.943 7.43668 56.9335 9.0902 57.8542 10.3755L58.3139 10.921C58.4813 11.0792 58.6661 11.2238 58.8621 11.3496C58.9638 11.4196 59.0708 11.4831 59.182 11.5389C59.2999 11.5977 59.3962 11.6611 59.5223 11.7082C60.7191 12.1569 61.6406 12.195 62.8701 11.7082C62.9871 11.6633 63.0557 11.6123 63.1859 11.5506C63.9028 11.2121 64.5964 10.4669 64.8949 9.76778C65.1161 9.24912 65.2244 8.90162 65.2244 8.16051C65.2223 5.60707 65.2224 3.05358 65.224 0.5C65.0165 0.546103 64.8871 0.72685 64.7486 0.856592C64.5894 1.00667 64.4584 1.09174 64.3009 1.24046C64.2248 1.31189 64.1727 1.35949 64.0962 1.43134L63.405 2.04011C63.262 2.16311 63.0983 2.30943 63.0123 2.47561C62.787 2.91292 62.8742 4.16288 62.8742 4.78307C62.8742 5.86258 62.8709 6.94256 62.8758 8.02208C62.8783 8.76831 62.6315 9.33326 62.0052 9.64743C61.8229 9.73835 61.5695 9.83227 61.3082 9.83227L61.3074 9.83223Z" fill="#009565"/>
<path fill-rule="evenodd" clip-rule="evenodd" d="M69.9633 9.82913C69.411 9.82913 69.0489 9.78832 68.628 9.40372C67.9277 8.7636 67.9839 7.68441 68.6471 7.13884C69.4916 6.4444 70.7811 6.67324 71.2693 7.60014C71.6678 8.35946 71.3218 9.27809 70.5847 9.64355C70.4561 9.7074 70.1316 9.82913 69.9633 9.82913ZM65.7466 8.22702V8.24041C65.7474 9.00659 65.9917 9.75684 66.4477 10.3934C66.6553 10.6811 66.6524 10.6307 66.7975 10.7992C67.0649 11.1 67.3928 11.3502 67.7611 11.5348C68.6834 11.9973 69.5764 12.1873 70.643 11.9615C70.9022 11.9064 71.1573 11.8279 71.4012 11.7298C71.5343 11.6787 71.6025 11.6239 71.7145 11.5708C74.1714 10.3879 74.6001 6.94376 72.1908 5.27637C71.9961 5.14027 71.7865 5.01964 71.5682 4.91919C70.0043 4.18625 68.1704 4.48794 66.895 5.67658C66.2191 6.31228 65.7466 7.26368 65.7466 8.22702V8.22702Z" fill="#009565"/>
<path fill-rule="evenodd" clip-rule="evenodd" d="M29.4561 9.82913C28.9051 9.82913 28.542 9.78832 28.1224 9.40372C27.4222 8.7636 27.4774 7.68441 28.1415 7.13884C28.9856 6.4444 30.2752 6.67324 30.7628 7.60014C31.1624 8.35946 30.8145 9.27809 30.0787 9.64355C29.9525 9.7074 29.6244 9.82913 29.4561 9.82913ZM25.2417 8.22702V8.24041V8.24057C25.2417 9.0071 25.4857 9.75708 25.9423 10.3936C26.1485 10.6813 26.1452 10.6309 26.2914 10.7995C26.5589 11.1001 26.8871 11.3501 27.2559 11.535C28.1777 11.9975 29.0703 12.1874 30.1367 11.9616C30.3964 11.9063 30.6518 11.8285 30.8965 11.7301C31.0283 11.6791 31.0968 11.6242 31.2094 11.5711C33.6646 10.3882 34.0939 6.94412 31.6838 5.27677C31.4892 5.13924 31.2787 5.01921 31.0599 4.91919C29.4966 4.18625 27.6638 4.48794 26.3883 5.67658C25.712 6.31228 25.2417 7.26368 25.2417 8.22702V8.22702Z" fill="#009565"/>
<path fill-rule="evenodd" clip-rule="evenodd" d="M52.8053 9.82911C52.2534 9.82911 51.89 9.7883 51.47 9.40365C50.7705 8.76358 50.8263 7.68438 51.4898 7.13878C52.3332 6.44438 53.6234 6.67322 54.1108 7.60012C54.5102 8.3594 54.1629 9.27807 53.4279 9.64348C53.3001 9.70734 52.9735 9.82911 52.8053 9.82911ZM48.5906 8.227C48.5898 8.23082 48.5894 8.23472 48.5894 8.23862V8.24035C48.5898 9.00652 48.8341 9.75694 49.2897 10.3936C49.4972 10.6812 49.4943 10.6309 49.6398 10.7994C49.9081 11.0996 50.236 11.3497 50.6039 11.5348C51.5258 11.9973 52.4183 12.1872 53.4853 11.9614C53.745 11.9065 54 11.8282 54.2448 11.7299C54.3771 11.6789 54.4453 11.624 54.5581 11.5709C57.013 10.388 57.4421 6.9439 55.0327 5.27651C54.8372 5.13993 54.6272 5.0197 54.4081 4.91944C52.8454 4.18648 51.0132 4.4882 49.7366 5.67683C49.0602 6.31225 48.5906 7.26362 48.5906 8.227Z" fill="#009565"/>
<path fill-rule="evenodd" clip-rule="evenodd" d="M19.7982 7.70764V7.53391C19.7867 7.05232 19.8316 0.768382 19.7947 0.601284C19.7442 0.372332 19.5485 0.64137 19.3328 0.798608C19.1484 0.932895 18.9975 1.073 18.8269 1.19638L17.825 2.00231C17.3583 2.3526 17.2206 2.60284 17.223 3.18017C17.2347 6.06948 17.1962 8.96726 17.2186 11.8559C17.2206 12.1313 17.2347 12.0596 17.9315 12.0602C18.7418 12.0605 19.4776 11.9491 19.7277 11.1257C19.8949 10.5773 19.7789 8.50517 19.7982 7.70764Z" fill="#009565"/>
<path fill-rule="evenodd" clip-rule="evenodd" d="M19.7983 7.53188V7.70541C19.9873 7.91877 20.7192 9.31485 20.9596 9.68393C21.4172 10.3847 21.4779 10.8953 22.3032 11.5295C23.1039 12.1427 24.0173 12.0534 25.0179 12.0589C25.6455 12.0629 25.5913 12.1654 24.8933 10.9556L22.9662 7.60121L24.3675 5.84606C25.2906 4.69662 25.331 4.85045 24.4208 4.85045C23.7892 4.85045 22.5138 4.79554 22.065 4.98419C21.5762 5.18979 20.8766 6.20954 20.5262 6.64638C20.3994 6.80506 20.2977 6.9314 20.1746 7.08425C20.0908 7.18671 19.8844 7.47275 19.7983 7.53188Z" fill="#017852"/>
<path d="M3.82828 4.08838C4.38998 4.08838 4.89992 4.15507 5.35814 4.28847C5.81632 4.42188 6.2031 4.59439 6.51841 4.80598C6.71552 4.93475 6.87071 5.07736 6.98403 5.23375C7.09735 5.39019 7.15398 5.59259 7.15398 5.84097V10.671C7.15398 11.1586 7.05547 11.5795 6.85839 11.9337C6.66132 12.2879 6.39277 12.5823 6.05283 12.8169C5.71284 13.0515 5.31378 13.224 4.85556 13.3344C4.39734 13.4448 3.90711 13.5 3.38486 13.5C2.48815 13.5 1.78357 13.3873 1.27117 13.1619C0.758765 12.9365 0.502555 12.5708 0.502555 12.0648C0.502555 11.8532 0.549357 11.6669 0.642982 11.5059C0.736585 11.3449 0.842521 11.223 0.960768 11.1402C1.24652 11.2874 1.56926 11.4116 1.92892 11.5128C2.28859 11.614 2.66058 11.6646 3.04489 11.6646C3.57701 11.6646 4.00073 11.5818 4.31606 11.4162C4.63137 11.2506 4.78904 10.9838 4.78904 10.6158V10.395C4.38506 10.5606 3.89233 10.6434 3.31095 10.6434C2.86753 10.6434 2.44625 10.5813 2.04717 10.4571C1.64809 10.3329 1.29827 10.1397 0.997723 9.87747C0.697171 9.61527 0.455753 9.27719 0.273447 8.86316C0.0911428 8.44917 0 7.95698 0 7.38655C0 6.82539 0.0960867 6.33777 0.28824 5.92378C0.480392 5.50979 0.746453 5.1671 1.0864 4.89568C1.42637 4.62425 1.83038 4.42188 2.29846 4.28847C2.76652 4.15507 3.27646 4.08838 3.82828 4.08838V4.08838ZM4.74472 6.08935C4.67573 6.05256 4.57473 6.01576 4.4417 5.97897C4.30866 5.94218 4.14363 5.92378 3.94652 5.92378C3.46369 5.92378 3.10156 6.05027 2.86013 6.30326C2.6187 6.55629 2.498 6.91737 2.498 7.38655C2.498 7.92018 2.6187 8.30428 2.86013 8.53887C3.10156 8.7735 3.40948 8.89077 3.78394 8.89077C4.18795 8.89077 4.50821 8.80336 4.74472 8.62857V6.08935Z" fill="#F7B02A"/>
<path fill-rule="evenodd" clip-rule="evenodd" d="M12.3853 9.8401C11.8343 9.8401 11.4712 9.79929 11.0516 9.41469C10.3514 8.77462 10.4066 7.69542 11.0708 7.14981C11.9148 6.45542 13.2044 6.68422 13.6921 7.61115C14.0916 8.37043 13.7437 9.2891 13.0079 9.65452C12.8817 9.71838 12.5536 9.8401 12.3853 9.8401ZM8.1709 8.23799V8.25138C8.17094 8.25158 8.17094 8.25158 8.17094 8.25158C8.17094 9.01807 8.41489 9.76809 8.87146 10.4047C9.07771 10.6923 9.07436 10.6419 9.22058 10.8105C9.4881 11.111 9.8163 11.361 10.1851 11.546C11.1069 12.0085 11.9995 12.1983 13.0659 11.9726C13.3256 11.9173 13.5811 11.8395 13.8257 11.7411C13.9575 11.69 14.026 11.6352 14.1386 11.5821C16.5938 10.3991 17.0232 6.95509 14.6131 5.28774C14.4184 5.15022 14.208 5.03018 13.9891 4.9302C12.4258 4.19723 10.593 4.49892 9.31753 5.68755C8.64123 6.32325 8.1709 7.27465 8.1709 8.23799V8.23799Z" fill="#F7B02A"/>
</g>
<defs>
<clipPath id="clip0_192_11371">
<rect width="74" height="13" fill="white" transform="translate(0 0.5)"/>
</clipPath>
</defs>
</svg>
