<svg width="67" height="16" viewBox="0 0 67 16" fill="none" xmlns="http://www.w3.org/2000/svg">
<g clip-path="url(#clip0_192_11384)">
<path d="M13.2993 8.02473C13.3013 7.30534 13.1508 6.59308 12.8568 5.93142C12.563 5.26976 12.1318 4.67255 11.5898 4.17622C11.0478 3.67991 10.4063 3.29489 9.70436 3.04464C9.00241 2.79438 8.25486 2.68414 7.50714 2.72064C6.21743 2.78998 4.99393 3.29172 4.04953 4.13851C3.10514 4.98528 2.49968 6.12354 2.33861 7.35504C2.17753 8.5865 2.47105 9.83328 3.16799 10.8783C3.86493 11.9233 4.92119 12.7004 6.15286 13.0742C6.29666 13.1122 6.4498 13.0996 6.58476 13.0386C6.71968 12.9777 6.82755 12.8724 6.88886 12.7418C6.94669 12.5955 6.94639 12.4338 6.88802 12.2877C6.82964 12.1416 6.71729 12.0213 6.57241 11.9497L6.38104 11.879C5.53868 11.5907 4.81022 11.0583 4.29608 10.3552C3.78198 9.65223 3.50758 8.81324 3.5107 7.95403C3.52952 6.91586 3.95667 5.92303 4.70629 5.17522C5.45589 4.42735 6.47237 3.97993 7.55128 3.9229C8.12852 3.88673 8.70719 3.96751 9.24985 4.16001C9.79251 4.3525 10.2871 4.65241 10.7014 5.0403C11.1199 5.42049 11.4532 5.87876 11.681 6.38705C11.9088 6.89539 12.0262 7.44301 12.0261 7.99643C12.0049 8.68124 11.8135 9.35122 11.4678 9.95036C11.1221 10.5496 10.6321 11.0605 10.0389 11.4406C9.96625 11.4771 9.88539 11.4962 9.80336 11.4962C9.72132 11.4962 9.64059 11.4771 9.56789 11.4406C9.33239 11.3345 9.06744 11.1365 8.75095 10.9526C9.54486 10.3117 10.0467 9.39808 10.1494 8.40662C10.1494 7.17605 8.55958 5.0403 7.73528 5.0403C6.91097 5.0403 5.37273 7.10535 5.37273 8.40662C5.37273 10.3797 8.02233 11.9851 8.95706 12.5155C9.12054 12.6457 9.31388 12.7368 9.52116 12.781C9.72848 12.8253 9.94385 12.8216 10.1494 12.7701C10.4217 12.6216 10.5762 12.5438 10.8117 12.3953C11.5768 11.9308 12.2045 11.2846 12.6338 10.5189C13.0631 9.75334 13.2797 8.89424 13.2626 8.02473H13.2993ZM8.93495 8.36418C8.8113 9.07327 8.41126 9.71049 7.81622 10.1464C7.22118 9.71049 6.82119 9.07327 6.69753 8.36418C6.7786 7.56905 7.16737 6.83211 7.78682 6.29912C8.3843 6.85558 8.78575 7.57761 8.93495 8.36418ZM10.0168 15.4363H5.52729C4.06138 15.4363 2.65549 14.8767 1.61892 13.8807C0.582351 12.8846 0 11.5338 0 10.1251V5.81118C0.00194729 4.40313 0.584885 3.0533 1.62103 2.05766C2.65718 1.06203 4.06198 0.501871 5.52729 0.5H10.0168C11.4828 0.5 12.8887 1.05957 13.9253 2.05561C14.9619 3.05164 15.5441 4.40255 15.5441 5.81118V10.1464C15.5441 11.555 14.9619 12.9059 13.9253 13.9019C12.8887 14.898 11.4828 15.4575 10.0168 15.4575" fill="#2DAB97"/>
<path d="M66.8209 10.4151C66.8209 11.9497 65.6873 12.664 63.5307 12.664C62.9864 12.6379 62.4449 12.5693 61.9119 12.4589C61.4491 12.3833 60.9734 12.4554 60.5576 12.664V2.62158C60.7046 2.62158 62.2946 2.62158 62.2946 3.63997V5.90302C62.79 5.57509 63.3867 5.41804 63.9872 5.45748C65.5106 5.45748 66.8209 6.27786 66.8209 7.77713V10.4151ZM62.2795 11.1576C62.6614 11.3113 63.073 11.3837 63.4868 11.3698C64.6496 11.3698 65.0839 10.9526 65.0839 10.0685V8.09542C65.101 7.92681 65.0801 7.75666 65.0227 7.59648C64.9654 7.43635 64.8728 7.28992 64.7514 7.16716C64.63 7.0444 64.4821 6.9482 64.3188 6.88504C64.1551 6.82192 63.9792 6.79329 63.8033 6.8012C63.0672 6.8012 62.2795 7.28209 62.2795 7.91858V11.1576ZM54.3974 10.21V6.23542C54.3974 5.37969 52.6604 5.35143 52.6604 5.35143V10.4151C52.6604 12.1831 54.0808 12.664 55.5603 12.664C56.296 12.664 56.9806 12.3882 57.6431 12.3882C58.0861 12.3863 58.5237 12.4806 58.9236 12.664V6.23542C58.9236 5.35143 57.1791 5.35143 57.1791 5.35143V11.1364C56.6992 11.2623 56.2047 11.3312 55.7072 11.3415C54.7211 11.3415 54.3752 10.9243 54.3752 10.21H54.3974ZM49.3778 11.7375C49.3778 12.6216 51.1148 12.6216 51.1148 12.6216V3.4278C51.1148 2.54379 49.3778 2.54379 49.3778 2.54379V6.83655H45.6242V3.4278C45.6242 2.54379 43.9316 2.54379 43.9316 2.54379V11.7375C43.9316 12.6216 45.6242 12.6216 45.6242 12.6216V8.20856H49.3778V11.7375ZM42.0769 3.49852C42.0769 3.31499 42.02 3.13558 41.9136 2.98308C41.8075 2.83058 41.6564 2.71185 41.4799 2.64194C41.3032 2.57203 41.109 2.5541 40.9218 2.59042C40.7345 2.62675 40.5628 2.71569 40.4283 2.84596C40.2937 2.97623 40.2025 3.14198 40.1661 3.32215C40.1297 3.50233 40.1498 3.68882 40.2239 3.85798C40.298 4.02714 40.4228 4.17134 40.5823 4.27228C40.7419 4.37323 40.929 4.42637 41.1199 4.42497C41.3709 4.41285 41.6081 4.31115 41.785 4.13978C41.9622 3.96841 42.066 3.73973 42.0769 3.49852ZM40.2883 11.7163C40.2883 12.5933 42.0547 12.5933 42.0547 12.5933V6.19301C42.0547 5.30898 40.4281 5.30898 40.2883 5.30898V11.7163ZM36.8365 7.76302V11.7163C36.8365 12.5721 38.6028 12.5933 38.6028 12.5933V7.48719C38.6028 5.68382 37.1308 5.20998 35.6589 5.20998C34.9229 5.20998 34.2384 5.51408 33.5318 5.51408C33.0878 5.51481 32.6505 5.41033 32.2586 5.20998V11.7163C32.2586 12.5933 33.9514 12.5933 33.9514 12.5933V6.81535C34.4485 6.68598 34.96 6.61479 35.4749 6.6032C36.4905 6.6032 36.8365 7.00629 36.8365 7.76302ZM28.7406 7.51548C28.7406 7.00629 28.4536 6.56781 27.3569 6.56781C26.1499 6.56781 25.0606 6.978 25.0606 8.12367C24.7219 7.74308 24.5341 7.25959 24.5307 6.75875C24.5307 5.52823 26.1941 5.19583 27.3569 5.19583C29.4398 5.19583 30.5732 6.05156 30.5732 7.58623V12.6498C30.2304 12.5046 29.8583 12.4346 29.4838 12.4448C28.7479 12.4448 28.0634 12.6781 27.2759 12.6781C25.8039 12.6781 24.3319 12.1406 24.3319 10.4999C24.3319 7.93273 28.1443 8.6046 28.7479 7.51548H28.7406ZM28.8435 8.9299C28.5271 9.63713 26.1867 9.27644 26.1867 10.4929C26.1867 11.1011 26.6503 11.4476 27.4672 11.4476C27.9368 11.4422 28.402 11.3609 28.8435 11.2071V8.9299ZM24.4276 4.28353C25.5905 4.28353 25.7819 3.1237 25.7819 2.40234C25.2676 2.56664 24.7262 2.63857 24.1848 2.61451H19.158C17.2076 2.61451 17.5313 4.73614 17.5313 4.73614C17.5313 4.73614 17.6344 4.25523 18.915 4.29767H20.7256V11.787C20.7256 12.6711 22.4625 12.6711 22.4625 12.6711V4.2623L24.4276 4.28353Z" fill="#2DAB97"/>
</g>
<defs>
<clipPath id="clip0_192_11384">
<rect width="67" height="15" fill="white" transform="translate(0 0.5)"/>
</clipPath>
</defs>
</svg>
